<svg xmlns="http://www.w3.org/2000/svg" version="1.1" xmlns:xlink="http://www.w3.org/1999/xlink" xmlns:svgjs="http://svgjs.dev/svgjs" viewBox="0 0 1422 800"><defs><filter id="llleaves-blur-2" x="-100%" y="-100%" width="400%" height="400%"><feGaussianBlur in="SourceGraphic" stdDeviation="2"></feGaussianBlur></filter><filter id="llleaves-blur-3" x="-100%" y="-100%" width="400%" height="400%"><feGaussianBlur in="SourceGraphic" stdDeviation="4"></feGaussianBlur></filter><filter id="llleaves-blur-4" x="-100%" y="-100%" width="400%" height="400%"><feGaussianBlur in="SourceGraphic" stdDeviation="12"></feGaussianBlur></filter></defs><g fill="hsl(205, 69%, 60%)"><path d="M1063 139H1113C1141 139 1163 161 1163 189H1113C1085 189 1063 167 1063 139Z " transform="matrix(-0.3718537005325275,0.012985417360949679,-0.012985417360949679,-0.3718537005325275,1529.0027771398989,210.5312373645975)" filter="url(#llleaves-blur-2)" opacity="0.57"></path><path d="M564 49H614C642 49 664 71 664 99H614C586 99 564 77 564 49Z " transform="matrix(0.19525731982107575,-0.5086627086673059,0.5086627086673059,0.19525731982107575,456.4709651884789,371.86986145496627)" opacity="0.84"></path><path d="M825 426H875C903 426 925 448 925 476H875C847 476 825 454 825 426Z " transform="matrix(-0.18650270608901753,-0.43937284137234384,0.43937284137234384,-0.18650270608901753,840.0327163689633,919.5639566469478)" opacity="0.73"></path><path d="M855 39H905C933 39 955 61 955 89H905C877 89 855 67 855 39Z " transform="matrix(-0.2847757985330919,-0.35166882385851406,0.35166882385851406,-0.2847757985330919,1140.215292945503,400.4859366980731)" opacity="0.69"></path><path d="M1047 366H1097C1125 366 1147 388 1147 416H1097C1069 416 1047 394 1047 366Z " transform="matrix(-0.3773268775174638,-0.013176544912828256,0.013176544912828256,-0.3773268775174638,1505.7755555757421,552.989478878701)" filter="url(#llleaves-blur-2)" opacity="0.58"></path><path d="M525 386H575C603 386 625 408 625 436H575C547 436 525 414 525 386Z " transform="matrix(0.18585533542317317,-0.510633337360334,0.510633337360334,0.18585533542317317,258.2628804765781,628.2276261232679)" opacity="0.84"></path><path d="M588 507H638C666 507 688 529 688 557H638C610 557 588 535 588 507Z " transform="matrix(0.16671953812259782,-0.5131099778053817,0.5131099778053817,0.16671953812259782,258.6584264853195,770.6693715586116)" opacity="0.83"></path><path d="M28 534H78C106 534 128 556 128 584H78C50 584 28 562 28 534Z " transform="matrix(-0.3816133609342017,-0.13140001776992127,0.13140001776992127,-0.3816133609342017,34.31323221948173,782.5710701482726)" opacity="0.62"></path><path d="M1210 499H1260C1288 499 1310 521 1310 549H1260C1232 549 1210 527 1210 499Z " transform="matrix(-0.28020904957075105,0.1683665829822059,-0.1683665829822059,-0.28020904957075105,1701.2874919418225,458.6876474174941)" filter="url(#llleaves-blur-2)" opacity="0.50"></path><path d="M269 709H319C347 709 369 731 369 759H319C291 759 269 737 269 709Z " transform="matrix(-0.06110994705500072,-0.4977005790111129,0.4977005790111129,-0.06110994705500072,-26.818151883611677,937.6211858429155)" opacity="0.77"></path><path d="M531 229H581C609 229 631 251 631 279H581C553 279 531 257 531 229Z " transform="matrix(0.18585533542317317,-0.510633337360334,0.510633337360334,0.18585533542317317,343.31718242961153,503.470713808868)" opacity="0.84"></path><path d="M890 717H940C968 717 990 739 990 767H940C912 767 890 745 890 717Z " transform="matrix(-0.2852832254922916,-0.35229544396757906,0.35229544396757906,-0.2852832254922916,946.7630125388105,1284.8378706448048)" opacity="0.70"></path><path d="M287 198H337C365 198 387 220 387 248H337C309 248 287 226 287 198Z " transform="matrix(-0.008906820334419087,-0.5102713952109378,0.5102713952109378,-0.008906820334419087,226.21107732066008,396.9476811206615)" opacity="0.78"></path><path d="M654 605H704C732 605 754 627 754 655H704C676 655 654 633 654 605Z " transform="matrix(0.11030790676041309,-0.5189578994585834,0.5189578994585834,0.11030790676041309,299.3997569817617,925.8523799597824)" opacity="0.82"></path><path d="M1088 479H1138C1166 479 1188 501 1188 529H1138C1110 529 1088 507 1088 479Z " transform="matrix(-0.36390910595243087,0.03824838828734638,-0.03824838828734638,-0.36390910595243087,1571.4057502706892,643.883523529025)" filter="url(#llleaves-blur-2)" opacity="0.56"></path><path d="M891 586H941C969 586 991 608 991 636H941C913 636 891 614 891 586Z " transform="matrix(-0.2852832254922916,-0.35229544396757906,0.35229544396757906,-0.2852832254922916,994.1989989240556,1116.8180635492822)" opacity="0.70"></path><path d="M914 322H964C992 322 1014 344 1014 372H964C936 372 914 350 914 322Z " transform="matrix(-0.32232049043181915,-0.3005687198989611,0.3005687198989611,-0.32232049043181915,1170.4196069713341,748.5934561624397)" opacity="0.68"></path><path d="M401 301H451C479 301 501 323 501 351H451C423 351 401 329 401 301Z " transform="matrix(0.13873288674860462,-0.5177581820264907,0.5177581820264907,0.13873288674860462,219.64230073574336,514.2820190139023)" opacity="0.82"></path><path d="M157 59H207C235 59 257 81 257 109H207C179 109 157 87 157 59Z " transform="matrix(-0.25767975163942936,-0.38202594215667435,0.38202594215667435,-0.25767975163942936,228.24952944820123,184.72446916414367)" opacity="0.71"></path><path d="M1026 586H1076C1104 586 1126 608 1126 636H1076C1048 636 1026 614 1026 586Z " transform="matrix(-0.38379688388722194,-0.0676737457411512,0.0676737457411512,-0.38379688388722194,1447.6167884148074,918.3168464725713)" filter="url(#llleaves-blur-2)" opacity="0.60"></path><path d="M993 36H1043C1071 36 1093 58 1093 86H1043C1015 86 993 64 993 36Z " transform="matrix(-0.3807544166610429,-0.026624942490517577,0.026624942490517577,-0.3807544166610429,1438.5027350855462,111.99583443393345)" filter="url(#llleaves-blur-2)" opacity="0.59"></path><path d="M644 156H694C722 156 744 178 744 206H694C666 206 644 184 644 156Z " transform="matrix(0.11030790676041309,-0.5189578994585834,0.5189578994585834,0.11030790676041309,523.5149329062697,521.1910511006221)" opacity="0.82"></path><path d="M687 418H737C765 418 787 440 787 468H737C709 468 687 446 687 418Z " transform="matrix(0.07296098717999883,-0.519144399095826,0.519144399095826,0.07296098717999883,453.24678364888996,793.2877048128844)" opacity="0.81"></path><path d="M19 51H69C97 51 119 73 119 101H69C41 101 19 79 19 51Z " transform="matrix(-0.38272556219949333,-0.1317829793770969,0.1317829793770969,-0.38272556219949333,85.39255735910568,114.18016830418117)" opacity="0.62"></path><path d="M998 708H1048C1076 708 1098 730 1098 758H1048C1020 758 998 736 998 708Z " transform="matrix(-0.38257109940279826,-0.12430488540544635,0.12430488540544635,-0.38257109940279826,1357.8190311719404,1143.696135767159)" opacity="0.62"></path><path d="M143 681H193C221 681 243 703 243 731H193C165 731 143 709 143 681Z " transform="matrix(-0.2688431466211856,-0.3700308464519806,0.3700308464519806,-0.2688431466211856,-16.35505029720946,967.2192148797894)" opacity="0.70"></path><path d="M788 289H838C866 289 888 311 888 339H838C810 339 788 317 788 289Z " transform="matrix(-0.13463133865780497,-0.46951527502886653,0.46951527502886653,-0.13463133865780497,803.3932654361764,749.7280408127408)" opacity="0.75"></path><path d="M155 223H205C233 223 255 245 255 273H205C177 273 155 251 155 223Z " transform="matrix(-0.2688431466211856,-0.3700308464519806,0.3700308464519806,-0.2688431466211856,168.34519513725186,390.5294238847101)" opacity="0.70"></path><path d="M468 563H518C546 563 568 585 568 613H518C490 613 468 591 468 563Z " transform="matrix(0.17651650167104832,-0.5126411442423418,0.5126411442423418,0.17651650167104832,125.1314593199001,749.7564097349566)" opacity="0.83"></path><path d="M1313 363H1363C1391 363 1413 385 1413 413H1363C1335 413 1313 391 1313 363Z " transform="matrix(-0.2112130239385313,0.21871748895572254,-0.21871748895572254,-0.2112130239385313,1735.7457373430384,171.83871584150032)" filter="url(#llleaves-blur-2)" opacity="0.47"></path><path d="M1322 716H1372C1400 716 1422 738 1422 766H1372C1344 766 1322 744 1322 716Z " transform="matrix(-0.2112130239385313,0.21871748895572254,-0.21871748895572254,-0.2112130239385313,1823.8539281598555,597.4284558912004)" filter="url(#llleaves-blur-2)" opacity="0.47"></path><path d="M1107 714H1157C1185 714 1207 736 1207 764H1157C1129 764 1107 742 1107 714Z " transform="matrix(-0.34581928138002416,0.07983867194854823,-0.07983867194854823,-0.34581928138002416,1616.1136871266654,902.1871054953676)" filter="url(#llleaves-blur-2)" opacity="0.54"></path><path d="M1145 31H1195C1223 31 1245 53 1245 81H1195C1167 81 1145 59 1145 31Z " transform="matrix(-0.24020202035337082,0.20155342668655105,-0.20155342668655105,-0.24020202035337082,1493.328406216725,-171.40503175063975)" filter="url(#llleaves-blur-2)" opacity="0.48"></path></g><g fill="none" stroke-width="3" stroke="hsl(205, 69%, 60%)"><path d="M406 703H456C484 703 506 725 506 753H456C428 753 406 731 406 703Z " transform="matrix(0.13873288674860462,-0.5177581820264907,0.5177581820264907,0.13873288674860462,15.809847127351077,863.1001894510955)" opacity="0.82"></path><path d="M652 291H702C730 291 752 313 752 341H702C674 341 652 319 652 291Z " transform="matrix(0.11030790676041309,-0.5189578994585834,0.5189578994585834,0.11030790676041309,460.5731532252777,645.4511468836349)" opacity="0.82"></path><path d="M711 35H761C789 35 811 57 811 85H761C733 85 711 63 711 35Z " transform="matrix(-9.413017755590579e-17,-0.5124208200080921,0.5124208200080921,-9.413017755590579e-17,730.2547507995146,449.9522440261581)" opacity="0.79"></path><path d="M766 542H816C844 542 866 564 866 592H816C788 592 766 570 766 542Z " transform="matrix(-0.0780292387823805,-0.4926572245511949,0.4926572245511949,-0.0780292387823805,600.335212525895,1013.2508736233849)" opacity="0.77"></path><path d="M1318 478H1368C1396 478 1418 500 1418 528H1368C1340 528 1318 506 1318 478Z " transform="matrix(-0.2112130239385313,0.21871748895572254,-0.21871748895572254,-0.2112130239385313,1766.9543136926393,310.0346261496528)" filter="url(#llleaves-blur-2)" opacity="0.47"></path><path d="M777 160H827C855 160 877 182 877 210H827C799 210 777 188 777 160Z " transform="matrix(-0.0780292387823805,-0.4926572245511949,0.4926572245511949,-0.0780292387823805,800.3885939310576,606.8629338785785)" opacity="0.77"></path><path d="M130 377H180C208 377 230 399 230 427H180C152 427 130 405 130 377Z " transform="matrix(-0.2688431466211856,-0.3700308464519806,0.3700308464519806,-0.2688431466211856,79.63936611811722,576.6804973030731)" opacity="0.70"></path><path d="M1197 147H1247C1275 147 1297 169 1297 197H1247C1219 197 1197 175 1197 147Z " transform="matrix(-0.25948447124156704,0.18852650371398255,-0.18852650371398255,-0.25948447124156704,1603.0036942770391,-18.461221077786718)" filter="url(#llleaves-blur-2)" opacity="0.49"></path><path d="M1149 263H1199C1227 263 1249 285 1249 313H1199C1171 313 1149 291 1149 263Z " transform="matrix(-0.3238936766546021,0.1178876573693172,-0.1178876573693172,-0.3238936766546021,1621.3001636312315,239.9340776907141)" filter="url(#llleaves-blur-2)" opacity="0.53"></path><path d="M912 171H962C990 171 1012 193 1012 221H962C934 221 912 199 912 171Z " transform="matrix(-0.32232049043181915,-0.3005687198989611,0.3005687198989611,-0.32232049043181915,1213.1608426952137,548.3219246674371)" opacity="0.68"></path><path d="M780 693H830C858 693 880 715 880 743H830C802 743 780 721 780 693Z " transform="matrix(-0.13463133865780497,-0.46951527502886653,0.46951527502886653,-0.13463133865780497,604.632043615252,1204.3629794302633)" opacity="0.75"></path><path d="M293 48H343C371 48 393 70 393 98H343C315 98 293 76 293 48Z " transform="matrix(0.018010050757861114,-0.5157403751402725,0.5157403751402725,0.018010050757861114,299.17350520481375,248.5842149677896)" opacity="0.79"></path><path d="M1295 255H1345C1373 255 1395 277 1395 305H1345C1317 305 1295 283 1295 255Z " transform="matrix(-0.22160532345228173,0.21400177329535924,-0.21400177329535924,-0.22160532345228173,1702.9796565660195,54.21710548438074)" filter="url(#llleaves-blur-2)" opacity="0.47"></path><path d="M664 723H714C742 723 764 745 764 773H714C686 773 664 751 664 723Z " transform="matrix(0.07296098717999883,-0.519144399095826,0.519144399095826,0.07296098717999883,273.58584462980303,1064.0942825437805)" opacity="0.81"></path><path d="M1189 377H1239C1267 377 1289 399 1289 427H1239C1211 427 1189 405 1189 377Z " transform="matrix(-0.30137664448546614,0.1469912109481897,-0.1469912109481897,-0.30137664448546614,1671.4961293186648,341.0313007183504)" filter="url(#llleaves-blur-2)" opacity="0.51"></path><path d="M1304 598H1354C1382 598 1404 620 1404 648H1354C1326 648 1304 626 1304 598Z " transform="matrix(-0.22160532345228173,0.21400177329535924,-0.21400177329535924,-0.22160532345228173,1787.3767127173983,471.30171546885515)" filter="url(#llleaves-blur-2)" opacity="0.47"></path><path d="M20 207H70C98 207 120 229 120 257H70C42 257 20 235 20 207Z " transform="matrix(-0.3816133609342017,-0.13140001776992127,0.13140001776992127,-0.3816133609342017,66.22813114277238,329.73230098062925)" opacity="0.62"></path><path d="M264 363H314C342 363 364 385 364 413H314C286 413 264 391 264 363Z " transform="matrix(-0.06110994705500072,-0.4977005790111129,0.4977005790111129,-0.06110994705500072,140.08069871895842,567.9886412668297)" opacity="0.77"></path><path d="M425 154H475C503 154 525 176 525 204H475C447 204 425 182 425 154Z " transform="matrix(0.16677626030072867,-0.5132845507192078,0.5132845507192078,0.16677626030072867,303.90334177841567,392.95721099779325)" opacity="0.83"></path><path d="M1017 248H1067C1095 248 1117 270 1117 298H1067C1039 298 1017 276 1017 248Z " transform="matrix(-0.38379688388722194,-0.0676737457411512,0.0676737457411512,-0.38379688388722194,1458.0363425203313,449.9844360070199)" filter="url(#llleaves-blur-2)" opacity="0.60"></path><path d="M9 369H59C87 369 109 391 109 419H59C31 419 9 397 9 369Z " transform="matrix(-0.3845618646821822,-0.060908615707847426,0.060908615707847426,-0.3845618646821822,57.69115542735686,549.1109830115428)" filter="url(#llleaves-blur-2)" opacity="0.60"></path><path d="M380 448H430C458 448 480 470 480 498H430C402 498 380 476 380 448Z " transform="matrix(0.11044215775379203,-0.5195895007242614,0.5195895007242614,0.11044215775379203,136.74403832329386,644.1843446938888)" opacity="0.82"></path><path d="M949 465H999C1027 465 1049 487 1049 515H999C971 515 949 493 949 465Z " transform="matrix(-0.3505213157628288,-0.24543766760031852,0.24543766760031852,-0.3505213157628288,1228.9063373229098,906.9476746565043)" opacity="0.66"></path><path d="M312 573H362C390 573 412 595 412 623H362C334 623 312 601 312 573Z " transform="matrix(0.036155447204612556,-0.517046983835333,0.517046983835333,0.036155447204612556,39.717631778401085,763.5500507200322)" opacity="0.80"></path><path d="M1218 712H1268C1296 712 1318 734 1318 762H1268C1240 762 1218 740 1218 712Z " transform="matrix(-0.28020904957075105,0.1683665829822059,-0.1683665829822059,-0.28020904957075105,1747.3912465135982,730.0252423122065)" filter="url(#llleaves-blur-2)" opacity="0.50"></path><path d="M1295 30H1345C1373 30 1395 52 1395 80H1345C1317 80 1295 58 1295 30Z " transform="matrix(-0.12164625889977235,0.2494117919359528,-0.2494117919359528,-0.12164625889977235,1522.3318667766712,-273.76831591436905)" filter="url(#llleaves-blur-3)" opacity="0.42"></path><path d="M537 698H587C615 698 637 720 637 748H587C559 748 537 726 537 698Z " transform="matrix(0.18585533542317317,-0.510633337360334,0.510633337360334,0.18585533542317317,108.71501519507586,888.368361519562)" opacity="0.84"></path><path d="M1319 142H1369C1397 142 1419 164 1419 192H1369C1341 192 1319 170 1319 142Z " transform="matrix(-0.1917066258555454,0.22846706008746026,-0.22846706008746026,-0.1917066258555454,1669.6003698308475,-113.75639874185703)" filter="url(#llleaves-blur-3)" opacity="0.46"></path><path d="M1159 602H1209C1237 602 1259 624 1259 652H1209C1181 652 1159 630 1159 602Z " transform="matrix(-0.3238936766546021,0.1178876573693172,-0.1178876573693172,-0.3238936766546021,1674.503016245976,687.555157502931)" filter="url(#llleaves-blur-2)" opacity="0.53"></path><path d="M184 518H234C262 518 284 540 284 568H234C206 568 184 546 184 518Z " transform="matrix(-0.2204291015131771,-0.4145668449483454,0.4145668449483454,-0.2204291015131771,60.47061294713188,759.701643839568)" opacity="0.72"></path><path d="M14 697H64C92 697 114 719 114 747H64C36 747 14 725 14 697Z " transform="matrix(-0.3816133609342017,-0.13140001776992127,0.13140001776992127,-0.3816133609342017,-6.44755773009426,1005.9344477317686)" opacity="0.62"></path><path d="M431 32H481C509 32 531 54 531 82H481C453 82 431 60 431 32Z " transform="matrix(0.20448667069306065,-0.5061222703312618,0.5061222703312618,0.20448667069306065,353.7929419877559,288.78907179983247)" opacity="0.84"></path></g></svg>